<svg width="300" height="600" viewBox="0 0 300 600" fill="none" xmlns="http://www.w3.org/2000/svg">
<g clip-path="url(#clip0_40_3)">
<rect width="300" height="600" fill="#7C7C7C"/>
<path d="M168.125 557.051C167.773 559.453 167.188 561.797 166.309 563.613C164.727 566.836 163.203 567.129 157.227 566.836C149.492 566.484 138.418 566.836 126.699 567.305C126.699 570.527 126.816 572.051 126.816 572.051C127.578 580.898 131.563 581.191 133.145 581.191H158.34C160.566 581.191 162.617 581.191 164.199 580.137C166.25 578.789 167.129 574.863 167.891 568.008C168.008 567.012 168.066 565.723 168.125 564.199V564.141C168.125 563.672 168.184 563.086 168.184 562.441V561.797C168.184 560.215 168.184 558.457 168.125 557.051ZM-128.242 557.051C-127.891 559.453 -127.305 561.797 -126.426 563.613C-124.844 566.836 -123.32 567.129 -117.344 566.836C-109.609 566.484 -98.5352 566.836 -86.8164 567.305C-86.8164 570.527 -86.9336 572.051 -86.9336 572.051C-87.6953 580.898 -91.6797 581.191 -93.2617 581.191H-118.457C-120.684 581.191 -122.559 581.191 -124.316 580.137C-126.426 578.906 -127.246 574.863 -128.008 568.008C-128.125 567.012 -128.184 565.723 -128.242 564.199V564.141C-128.242 563.672 -128.301 563.086 -128.301 562.441V561.797C-128.242 560.215 -128.242 558.457 -128.242 557.051Z" fill="#C0C0C0"/>
<path d="M170 501.797C170 483.809 167.656 466.23 166.719 464.297C166.016 462.891 161.504 459.199 151.25 452.227C140.879 445.137 141.113 446.191 139.238 441.563C140.938 441.035 142.578 440.039 143.574 439.922C145.801 439.688 145.918 441.797 150.547 441.797C155.176 441.797 165.195 440.566 167.246 438.516C169.297 436.465 169.941 435.762 169.941 433.945C169.941 432.129 168.887 428.379 166.895 426.152C164.902 423.926 156.406 422.813 151.426 422.168C146.445 421.523 145.742 422.168 144.453 422.988C142.402 424.277 142.285 436.055 142.285 436.055L137.422 436.172C134.258 428.379 129.863 412.676 123.008 400.313C115.508 386.836 107.656 382.617 104.375 381.563C101.152 380.566 98.2227 379.863 76.25 377.637C53.8086 375.293 35.9375 375 20 375C4.0625 375 -13.8086 375.352 -36.25 377.637C-58.2227 379.922 -61.1523 380.566 -64.375 381.563C-67.5977 382.559 -75.5078 386.836 -83.0078 400.313C-89.8633 412.676 -94.2578 428.379 -97.4219 436.172L-102.285 436.055C-102.285 436.055 -102.344 424.277 -104.453 422.988C-105.742 422.168 -106.445 421.465 -111.426 422.168C-116.406 422.871 -124.902 423.926 -126.895 426.152C-128.887 428.379 -129.941 432.129 -129.941 433.945C-129.941 435.762 -129.297 436.523 -127.246 438.516C-125.195 440.566 -115.176 441.797 -110.547 441.797C-105.918 441.797 -105.801 439.688 -103.574 439.922C-102.578 440.039 -100.879 441.035 -99.2383 441.563C-101.172 446.191 -100.879 445.137 -111.25 452.227C-121.504 459.258 -126.074 462.891 -126.719 464.297C-127.656 466.23 -130 483.809 -130 501.797C-130 519.785 -128.711 535.957 -128.711 541.699C-128.711 544.102 -128.711 548.32 -128.184 552.363C-127.832 554.766 -127.305 557.109 -126.367 558.926C-124.785 562.148 -123.32 562.441 -117.285 562.148C-109.551 561.797 -98.3594 562.148 -86.8164 562.617C-79.082 562.91 -71.1719 563.203 -64.1406 563.379C-46.5625 563.73 -51.7188 560.801 -44.2188 560.918C-36.7188 561.035 -7.12891 562.266 19.9414 562.266C47.0117 562.266 76.6602 561.035 84.1016 560.918C91.6016 560.801 86.4453 563.73 104.023 563.379C111.055 563.262 118.965 562.91 126.699 562.617C138.242 562.207 149.492 561.797 157.168 562.148C163.203 562.441 164.668 562.148 166.25 558.926C167.129 557.109 167.715 554.766 168.066 552.363C168.652 548.32 168.594 544.102 168.594 541.699C168.711 536.016 170 519.785 170 501.797ZM-79.4922 413.086C-76.6797 406.523 -68.2422 393.34 -64.1406 390.996C-63.1445 390.41 -54.4141 387.656 -32.5586 386.191C-12.4609 384.844 9.7461 384.316 20.0586 384.316C30.3711 384.316 52.5781 384.844 72.6758 386.191C94.4727 387.656 103.32 390.352 104.258 390.996C109.531 394.629 116.797 406.523 119.609 413.086C122.422 419.648 126.172 432.539 125.469 434.297C124.766 436.055 126.172 436.934 116.68 436.172C107.246 435.469 48.0078 434.707 20.1172 434.707C-7.71484 434.707 -66.9531 435.469 -76.4453 436.172C-85.9375 436.875 -84.5312 436.055 -85.2344 434.297C-86.0547 432.539 -82.3047 419.707 -79.4922 413.086ZM-57.9297 486.445C-62.1484 487.5 -64.668 489.785 -69.9414 489.727C-75.2148 489.727 -89.4531 487.324 -92.5 487.207C-95.5469 487.09 -98.2422 489.258 -99.8242 489.668C-101.406 490.078 -104.512 488.965 -109.199 487.5C-113.887 486.035 -116.641 486.445 -118.164 480.059C-119.746 473.73 -118.164 464.648 -118.164 464.648C-108.027 464.18 -98.2422 465.117 -79.9023 470.273C-61.5625 475.43 -51.3672 485.332 -51.3672 485.332C-51.3672 485.332 -53.7109 485.391 -57.9297 486.445ZM79.8828 532.617C71.5039 533.73 36.4062 534.023 20 534.023C3.59375 534.023 -31.5039 533.672 -39.8828 532.617C-48.4375 531.504 -59.5703 521.25 -51.8945 513.105C-41.5234 502.031 -43.457 502.383 -19.9023 499.336C0.488277 496.699 15.957 496.582 20 496.582C23.9844 496.582 39.5117 496.758 59.9023 499.336C83.457 502.383 81.5234 502.031 91.8945 513.105C99.5703 521.25 88.4375 531.504 79.8828 532.617ZM158.164 480.117C156.582 486.445 153.887 486.094 149.199 487.559C144.512 489.023 141.406 490.078 139.824 489.727C138.242 489.375 135.547 487.207 132.5 487.266C129.453 487.383 115.215 489.785 109.941 489.785C104.668 489.785 102.148 487.559 97.9297 486.504C93.7109 485.449 91.3672 485.449 91.3672 485.449C91.3672 485.449 101.504 475.488 119.902 470.391C138.242 465.234 148.027 464.297 158.164 464.766C158.164 464.648 159.746 473.73 158.164 480.117Z" fill="#C0C0C0"/>
<path d="M116.864 151.696C116.923 153.718 118.187 155.505 120.072 156.228L131.424 160.583C133.314 161.311 135.458 160.822 136.849 159.353L147.186 148.435C149.769 148.542 152.318 148.469 154.818 148.215L165.746 158.591C167.211 159.982 169.374 160.354 171.224 159.528L182.352 154.572C184.159 153.771 185.316 151.979 185.316 150.007C185.316 149.963 185.316 149.919 185.316 149.87L184.906 134.807C186.761 133.117 188.524 131.271 190.165 129.279L205.199 128.894C207.225 128.84 209.017 127.575 209.74 125.686L214.095 114.333C214.32 113.747 214.427 113.142 214.427 112.541C214.427 111.193 213.881 109.875 212.865 108.913L201.947 98.5664C202.064 96.0322 201.996 93.4687 201.757 90.9346L212.108 80.0068C213.49 78.542 213.871 76.3789 213.041 74.5332L208.085 63.4053C207.264 61.5596 205.409 60.3926 203.387 60.4414L188.343 60.8369C186.62 58.9717 184.759 57.2138 182.792 55.5879L182.401 40.5537C182.347 38.5322 181.083 36.7402 179.193 36.0176L167.845 31.6621C165.956 30.9345 163.817 31.4228 162.425 32.8926L152.079 43.8105C149.496 43.7031 146.947 43.7763 144.447 44.0303L133.519 33.6543C132.054 32.2578 129.891 31.8867 128.041 32.7119L116.913 37.6728C115.106 38.4785 113.949 40.2705 113.949 42.2383C113.949 42.2822 113.949 42.3261 113.949 42.375L114.359 57.4385C112.499 59.1328 110.741 60.9785 109.1 62.9658L94.0661 63.3515C92.0397 63.4053 90.2477 64.6699 89.5251 66.5596L85.1696 77.9121C84.4372 79.8115 84.9255 81.9453 86.3952 83.332L97.3327 93.7178C97.2302 96.2031 97.3083 98.7275 97.5622 101.242L87.1569 112.238C85.7702 113.708 85.3942 115.866 86.2243 117.712L91.1803 128.84C92.0007 130.686 93.8512 131.853 95.8727 131.804L111.014 131.418C112.718 133.293 114.535 135.031 116.454 136.618L116.864 151.696ZM124.379 130.124C121.727 128.151 119.281 125.812 117.108 123.176C116.132 121.994 114.662 121.32 113.124 121.359L98.9538 121.721L96.7126 116.691L106.454 106.398C107.513 105.275 107.982 103.703 107.767 102.219C107.255 98.8447 107.142 95.456 107.46 92.165C107.626 90.6513 107.035 89.1328 105.922 88.0781L95.7018 78.376L97.6647 73.2637L111.693 72.9023C113.216 72.8633 114.637 72.1308 115.555 70.9199C117.665 68.1318 120.038 65.6416 122.606 63.5224C123.793 62.541 124.481 61.042 124.423 59.5283L124.037 45.4463L129.056 43.2051L139.276 52.9072C140.394 53.9717 141.937 54.4599 143.461 54.2304C146.747 53.7373 150.184 53.6347 153.68 53.9277C155.194 54.0595 156.683 53.4883 157.728 52.3847L167.382 42.1943L172.489 44.1572L172.855 58.1904C172.894 59.709 173.627 61.1299 174.838 62.0478C177.596 64.1328 180.116 66.5156 182.333 69.1279C183.309 70.2851 184.764 70.9346 186.278 70.8955L200.311 70.5293L202.548 75.5537L192.894 85.749C191.854 86.8476 191.371 88.3711 191.571 89.8603C192.035 93.2637 192.118 96.7207 191.83 100.168C191.674 101.672 192.269 103.171 193.373 104.216L203.563 113.869L201.6 118.981L187.572 119.343C186.049 119.382 184.628 120.114 183.71 121.325C181.595 124.123 179.222 126.613 176.664 128.723C175.477 129.694 174.906 131.145 174.842 132.717L175.228 146.799L170.209 149.035L159.989 139.333C158.871 138.273 157.328 137.785 155.804 138.015C152.518 138.508 149.081 138.61 145.585 138.317C144.071 138.186 142.582 138.757 141.532 139.86L131.883 150.051L126.771 148.088L126.39 133.996C126.346 132.468 125.604 131.037 124.379 130.124ZM237.567 267.419C238.343 269.284 240.165 270.5 242.186 270.5H255.99C258.011 270.5 259.833 269.284 260.609 267.419L267.308 251.286C270.209 250.354 273.007 249.206 275.673 247.863L291.752 254.509C293.617 255.285 295.77 254.855 297.196 253.425L306.932 243.684C308.368 242.248 308.788 240.1 308.016 238.234L301.371 222.214C302.762 219.45 303.929 216.613 304.857 213.742L320.917 207.097C322.787 206.325 324.008 204.499 324.008 202.478V188.674C324.008 186.652 322.787 184.826 320.917 184.055L304.857 177.409C303.924 174.543 302.758 171.706 301.371 168.937L308.016 152.917C308.783 151.047 308.368 148.903 306.932 147.468L297.196 137.727C295.765 136.296 293.612 135.866 291.747 136.643L275.721 143.293C272.992 141.921 270.16 140.739 267.259 139.772L260.609 123.737C259.833 121.867 258.011 120.651 255.99 120.651H242.186C240.165 120.651 238.343 121.867 237.567 123.737L230.912 139.772C228.011 140.739 225.179 141.921 222.45 143.293L206.434 136.643C204.564 135.866 202.411 136.296 200.98 137.727L191.239 147.468C189.808 148.898 189.398 151.047 190.155 152.917L196.8 168.942C195.409 171.716 194.242 174.548 193.314 177.409L177.255 184.055C175.384 184.826 174.164 186.652 174.164 188.674V202.478C174.164 204.499 175.384 206.325 177.255 207.097L193.314 213.742C194.242 216.604 195.409 219.44 196.8 222.209L190.155 238.234C189.393 240.104 189.808 242.253 191.239 243.684L200.98 253.425C202.411 254.855 204.559 255.28 206.424 254.509L222.499 247.863C225.165 249.206 227.967 250.354 230.868 251.286L237.567 267.419ZM239.193 245.261C238.602 243.84 237.391 242.771 235.907 242.36C232.118 241.311 228.519 239.836 225.218 237.98C223.881 237.229 222.274 237.136 220.858 237.722L205.692 243.991L200.673 238.977L206.937 223.874C207.518 222.468 207.425 220.871 206.698 219.548C204.755 216.022 203.251 212.37 202.235 208.693C201.825 207.209 200.751 205.993 199.325 205.407L184.164 199.133V192.019L199.325 185.744C200.751 185.158 201.82 183.947 202.235 182.463C203.251 178.791 204.755 175.134 206.698 171.604C207.425 170.266 207.518 168.679 206.937 167.277L200.673 152.175L205.687 147.16L220.785 153.43C222.191 154.011 223.788 153.923 225.121 153.186C228.573 151.281 232.245 149.753 236.039 148.645C237.494 148.22 238.675 147.16 239.257 145.759L245.526 130.651H252.65L258.915 145.759C259.496 147.16 260.677 148.22 262.133 148.645C265.926 149.753 269.598 151.281 273.05 153.186C274.383 153.923 275.98 154.011 277.382 153.43L292.489 147.16L297.499 152.175L291.234 167.277C290.653 168.679 290.741 170.275 291.473 171.608C293.412 175.119 294.916 178.771 295.936 182.463C296.351 183.947 297.421 185.158 298.846 185.744L314.008 192.019V199.133L298.846 205.407C297.421 205.993 296.346 207.209 295.936 208.693C294.916 212.385 293.412 216.037 291.478 219.543C290.741 220.871 290.653 222.468 291.234 223.874L297.499 238.977L292.484 243.991L277.313 237.722C275.897 237.136 274.291 237.229 272.953 237.98C269.652 239.836 266.058 241.311 262.264 242.36C260.785 242.771 259.574 243.84 258.983 245.261L252.655 260.5H245.521L239.193 245.261ZM268.153 33.5859L264.496 42.4092C263.251 42.8535 262.025 43.3662 260.829 43.9326L252.015 40.2754C250.15 39.499 247.997 39.9287 246.566 41.3594L240.702 47.2236C239.271 48.6543 238.856 50.8125 239.618 52.6728L243.275 61.4912C242.704 62.6972 242.201 63.9228 241.761 65.1582L232.933 68.8105C231.063 69.582 229.842 71.4082 229.842 73.4297V81.7353C229.842 83.7568 231.063 85.583 232.928 86.3545L241.766 90.0117C242.201 91.2471 242.704 92.4726 243.275 93.6787L239.618 102.497C238.851 104.362 239.266 106.511 240.702 107.946L246.566 113.806C247.997 115.236 250.145 115.661 252.01 114.89L260.858 111.232C262.03 111.789 263.236 112.282 264.471 112.712L268.153 121.584C268.929 123.449 270.751 124.665 272.772 124.665H281.083C283.104 124.665 284.925 123.449 285.702 121.584L289.383 112.712C290.619 112.282 291.825 111.789 292.997 111.232L301.844 114.89C303.71 115.661 305.858 115.236 307.289 113.806L313.148 107.946C314.584 106.511 314.999 104.348 314.232 102.497L310.575 93.6836C311.146 92.4775 311.649 91.2519 312.089 90.0117L320.922 86.3545C322.787 85.583 324.008 83.7568 324.008 81.7353V73.4297C324.008 71.4082 322.787 69.582 320.917 68.8105L312.089 65.1582C311.654 63.9179 311.146 62.6924 310.575 61.4863L314.232 52.6728C314.999 50.8027 314.579 48.6592 313.148 47.2236L307.289 41.3594C305.858 39.9287 303.71 39.499 301.84 40.2754L293.026 43.9326C291.83 43.3662 290.604 42.8535 289.359 42.4092L285.702 33.5859C284.925 31.7158 283.104 30.5 281.083 30.5H272.772C270.751 30.5 268.929 31.7158 268.153 33.5859ZM277.743 40.5L281.005 48.3613C281.586 49.7627 282.767 50.8222 284.222 51.247C286.356 51.872 288.431 52.7314 290.394 53.8154C291.727 54.5478 293.319 54.6357 294.72 54.0547L302.582 50.7929L303.715 51.9306L300.453 59.792C299.872 61.1982 299.96 62.79 300.697 64.1279C301.786 66.0908 302.626 68.1416 303.202 70.2217C303.612 71.706 304.686 72.9219 306.112 73.5078L314.008 76.7744V78.3955L306.107 81.6621C304.686 82.248 303.612 83.4638 303.202 84.9482C302.626 87.0234 301.786 89.0742 300.692 91.0469C299.96 92.3847 299.872 93.9717 300.453 95.3779L303.715 103.239L302.577 104.377L294.676 101.11C293.26 100.524 291.659 100.617 290.321 101.369C288.466 102.409 286.449 103.234 284.33 103.82C282.845 104.23 281.634 105.3 281.044 106.721L277.748 114.665H276.107L272.811 106.721C272.22 105.3 271.009 104.23 269.525 103.82C267.406 103.234 265.389 102.409 263.534 101.369C262.196 100.617 260.594 100.524 259.178 101.11L251.273 104.377L250.135 103.239L253.397 95.3779C253.973 93.9765 253.885 92.3896 253.158 91.0566C252.064 89.0596 251.219 87.0039 250.648 84.9482C250.238 83.4638 249.164 82.248 247.743 81.6621L239.842 78.3955V76.7744L247.738 73.5078C249.164 72.9219 250.238 71.706 250.648 70.2217C251.219 68.1611 252.064 66.1054 253.158 64.1181C253.885 62.79 253.973 61.1982 253.397 59.792L250.135 51.9306L251.273 50.7929L259.134 54.0547C260.536 54.6357 262.128 54.5478 263.461 53.8154C265.424 52.7314 267.499 51.872 269.633 51.247C271.088 50.8222 272.269 49.7627 272.85 48.3613L276.112 40.5H277.743Z" fill="#C0C0C0"/>
<path d="M176.122 96.1153C176.122 81.5059 164.232 69.6163 149.623 69.6163C135.013 69.6163 123.124 81.5059 123.124 96.1153C123.124 110.73 135.013 122.619 149.623 122.619C164.232 122.619 176.122 110.73 176.122 96.1153ZM133.124 96.1153C133.124 87.0186 140.526 79.6163 149.623 79.6163C158.719 79.6163 166.122 87.0186 166.122 96.1153C166.122 105.217 158.719 112.619 149.623 112.619C140.526 112.619 133.124 105.217 133.124 96.1153ZM278.475 195.568C278.475 179.387 265.287 166.218 249.076 166.218C232.894 166.218 219.725 179.387 219.725 195.568C219.725 211.779 232.894 224.968 249.076 224.968C265.287 224.968 278.475 211.779 278.475 195.568ZM229.725 195.568C229.725 184.899 238.407 176.218 249.076 176.218C259.774 176.218 268.475 184.899 268.475 195.568C268.475 206.267 259.774 214.968 249.076 214.968C238.407 214.968 229.725 206.267 229.725 195.568ZM260.726 77.5655C260.726 86.5255 267.992 93.8155 276.923 93.8155C285.858 93.8155 293.124 86.5255 293.124 77.5655C293.124 68.6348 285.858 61.3692 276.923 61.3692C267.992 61.3692 260.726 68.6348 260.726 77.5655ZM283.124 77.5655C283.124 81.0128 280.341 83.8155 276.923 83.8155C273.505 83.8155 270.726 81.0128 270.726 77.5655C270.726 74.2061 273.563 71.3692 276.923 71.3692C280.282 71.3692 283.124 74.2061 283.124 77.5655Z" fill="#C0C0C0"/>
</g>
<defs>
<clipPath id="clip0_40_3">
<rect width="300" height="600" fill="white"/>
</clipPath>
</defs>
</svg>
